<?xml version="1.0" encoding="UTF-8"?> <svg xmlns="http://www.w3.org/2000/svg" fill="none" viewBox="0 0 136 72"><path fill="#30305E" d="M132.124 44.754a2.155 2.155 0 0 1-.862 1.798 3.526 3.526 0 0 1-2.29.699 2.572 2.572 0 0 1-1.605-.46 1.48 1.48 0 0 1-.61-1.264 1.635 1.635 0 0 1 .744-1.487 3.58 3.58 0 0 1 2.051-.505 6.37 6.37 0 0 1 1.397.149c.409.086.808.215 1.19.386l-.015.684Zm3.835 5.024v-8.28a5.525 5.525 0 0 0-2.766-5.483 5.516 5.516 0 0 0-2.05-.67 5.382 5.382 0 0 0-1.487 0 12.665 12.665 0 0 0-3.077.327c-.491.12-.966.268-1.487.431v3.478c.616-.236 1.247-.43 1.888-.58a9.509 9.509 0 0 1 2.052-.193 3.478 3.478 0 0 1 2.289.654c.264.248.47.551.603.888.134.336.192.698.17 1.06v.208a11.338 11.338 0 0 0-1.591-.416 8.987 8.987 0 0 0-1.887-.164 8.79 8.79 0 0 0-2.334.282 5.438 5.438 0 0 0-1.814.833c-.5.373-.906.856-1.189 1.412a4.448 4.448 0 0 0-.416 2.021c-.037.68.09 1.358.371 1.977.242.527.598.994 1.041 1.367.46.382.99.67 1.561.848a6.42 6.42 0 0 0 1.902.282 6.085 6.085 0 0 0 2.528-.49 5.81 5.81 0 0 0 1.783-1.323v1.486l3.91.045Zm-13.527-10.3v-4.222a4.042 4.042 0 0 0-2.869.803 5.84 5.84 0 0 0-1.68 2.333v-2.868h-4.044v14.254h4.044V44.59a5.38 5.38 0 0 1 1.159-3.805 4.16 4.16 0 0 1 3.181-1.233l.209-.075Zm-14.375 3.195a4.34 4.34 0 0 1-.268 1.635c-.176.458-.433.88-.758 1.248a3.507 3.507 0 0 1-1.115.803 3.24 3.24 0 0 1-3.776-.803 4.49 4.49 0 0 1-.743-1.263 4.283 4.283 0 0 1-.312-1.62 4.168 4.168 0 0 1 .268-1.605c.176-.46.427-.886.743-1.264a3.284 3.284 0 0 1 3.776-.802c.421.191.799.464 1.115.802.328.371.585.8.758 1.264.187.514.277 1.058.267 1.605h.045Zm4.043 0a8.646 8.646 0 0 0-.535-3.136 7.449 7.449 0 0 0-1.486-2.319 6.13 6.13 0 0 0-2.082-1.486 6.449 6.449 0 0 0-2.452-.476 4.993 4.993 0 0 0-2.646.654 6.041 6.041 0 0 0-1.784 1.635v-7.179h-3.984v19.412h4.043v-1.843a6.953 6.953 0 0 0 1.754 1.486c.82.446 1.743.666 2.676.64a6.292 6.292 0 0 0 2.453-.491 5.827 5.827 0 0 0 2.066-1.487 7.432 7.432 0 0 0 1.487-2.319 8.524 8.524 0 0 0 .565-3.15l-.075.059Zm-21.034 2.08a2.17 2.17 0 0 1-.862 1.814c-.66.489-1.47.73-2.29.684a2.662 2.662 0 0 1-1.605-.446 1.488 1.488 0 0 1-.61-1.278 1.651 1.651 0 0 1 .744-1.487 3.701 3.701 0 0 1 2.051-.505 6.373 6.373 0 0 1 2.587.535l-.015.684Zm3.835 5.025v-8.264a5.528 5.528 0 0 0-4.831-6.169 5.287 5.287 0 0 0-1.487 0 13.374 13.374 0 0 0-3.077.312c-.49.134-.966.268-1.486.431v3.478c.61-.23 1.236-.42 1.873-.564a9.646 9.646 0 0 1 2.066-.208 3.42 3.42 0 0 1 2.29.668 2.453 2.453 0 0 1 .772 1.947v.209c-.52-.18-1.05-.324-1.59-.431a10.167 10.167 0 0 0-1.903-.164 9.427 9.427 0 0 0-2.32.282 5.44 5.44 0 0 0-1.813.833c-.5.372-.907.855-1.189 1.412a4.34 4.34 0 0 0-.446 2.08c-.012.668.13 1.33.416 1.933.241.528.597.995 1.04 1.367.458.383.99.667 1.562.833a6.274 6.274 0 0 0 1.902.282 5.945 5.945 0 0 0 2.528-.49 5.53 5.53 0 0 0 1.784-1.323v1.486l3.909.06ZM81.522 35.524H77.3l-3.106 9.706-3.24-9.706h-4.282l5.574 14.313a1.799 1.799 0 0 1-.564.728 1.487 1.487 0 0 1-.848.194 2.975 2.975 0 0 1-.862-.149c-.3-.106-.588-.24-.862-.401l-1.353 2.972a7.897 7.897 0 0 0 1.62.714c.64.177 1.3.267 1.963.267a5.81 5.81 0 0 0 1.605-.223 3.256 3.256 0 0 0 1.234-.683 4.98 4.98 0 0 0 .996-1.234c.342-.59.626-1.212.847-1.858l5.5-14.64ZM66.36 46.552l-2.275-2.303a12.205 12.205 0 0 1-2.616 1.917 6.705 6.705 0 0 1-3.166.698 6.394 6.394 0 0 1-2.676-.55 6.569 6.569 0 0 1-2.11-1.486 6.94 6.94 0 0 1-1.383-2.289 7.937 7.937 0 0 1-.491-2.809 7.432 7.432 0 0 1 .49-2.794 6.808 6.808 0 0 1 1.383-2.32 6.526 6.526 0 0 1 2.11-1.485 6.646 6.646 0 0 1 2.677-.565 6.75 6.75 0 0 1 3.077.698 10.646 10.646 0 0 1 2.542 1.77l2.274-2.632a15.524 15.524 0 0 0-1.486-1.263c-.557-.387-1.15-.72-1.77-.996a10.22 10.22 0 0 0-2.08-.64c-.833-.16-1.68-.24-2.528-.237a10.526 10.526 0 0 0-4.206.833 9.96 9.96 0 0 0-5.441 5.573 11.132 11.132 0 0 0 0 8.16 10.138 10.138 0 0 0 9.484 6.302c.869.006 1.735-.078 2.587-.252a9.071 9.071 0 0 0 2.14-.714 9.623 9.623 0 0 0 1.829-1.13 12.687 12.687 0 0 0 1.62-1.486h.015ZM26.282 23.142c-9.96 7.298-8.637 27.052 9.603 33.16 1.382-9.066 2.869-25.787-2.453-33.323 8.562 5.053 7.923 22.667 4.787 38.764-27.144-9.022-26.357-35.85-11.893-38.645m-6.838-11.742-.341.148c-1.309 2.69 1.962 5.158 2.764 1.606L19.43 11.4l.06-.044ZM15.252 3.21c.654 6.153 11.312 6.748 14.479 16.111 2.616-8.01 0-13.11-7.567-13.377a9.38 9.38 0 0 1 8.473 1.918c-.371-1.918-2.393-3.657-4.801-4.89 11.06 1.68 7.358 16.498 3.716 19.917a13.896 13.896 0 0 0-3.434-6.065 5.352 5.352 0 0 1-5.039 1.1c2.378-.104 3.464-1.189 3.672-2.422a18.196 18.196 0 0 0-1.011-.863c-.773 3.345-6.377 2.825-6.17-2.05-1.144 1.159-1.174 2.898-.936 5.945-2.14-3.434-2.319-6.08.61-8.755a15.811 15.811 0 0 1-1.68-1.486c-5.158 2.72-4.549 9.616-2.185 14.001-9.455 15.324 4.46 35.033 19.949 38.928C15.133 60.227-.089 40.13 10.093 22.83 8.102 17.836 8.235 10.836 14.286 6.6c-.996-1.725-1.1-3.776.356-6.6 5.426 8.115 13.38 6.168 13.974 15.265C25.137 8.487 17.6 7.937 15.236 3.21h.016ZM0 67.629c11.12-7.075 41.474-5.946 53.352 3.716C41.415 66.038 11.506 64.537 0 67.629Z"></path></svg> 